<svg width="166" height="175" viewBox="0 0 166 175" fill="none" xmlns="http://www.w3.org/2000/svg">
<rect x="0.5" y="0.5" width="165" height="174" fill="#EAEAEA" stroke="#C4C4C4"/>
<path d="M1.39453 1.47058L46.0332 48.5294" stroke="#C4C4C4"/>
<path d="M119.967 126.471L164.605 173.529" stroke="#C4C4C4"/>
<path d="M119.967 48.5294L164.605 1.4706" stroke="#C4C4C4"/>
<path d="M1.39453 173.529L46.0332 126.471" stroke="#C4C4C4"/>
<path d="M67 80.6C67 78.6118 68.6926 77 70.7805 77C72.8684 77 74.561 78.6118 74.561 80.6C74.561 82.5882 72.8684 84.2 70.7805 84.2C68.6926 84.2 67 82.5882 67 80.6Z" fill="#959595"/>
<path d="M98 95H67.7561V90.68L71.4907 87.1236C71.9336 86.7019 72.6517 86.7019 73.0946 87.1236L76.8293 90.68L88.1248 79.9237C88.5678 79.5019 89.2859 79.5019 89.7288 79.9237L98 87.8V95Z" fill="#959595"/>
</svg>
